<?xml version="1.0" encoding="utf-8"?>
<!-- Generator: Adobe Illustrator 15.0.0, SVG Export Plug-In . SVG Version: 6.00 Build 0)  -->
<!DOCTYPE svg PUBLIC "-//W3C//DTD SVG 1.1//EN" "http://www.w3.org/Graphics/SVG/1.1/DTD/svg11.dtd">
<svg version="1.1" id="Layer_1" xmlns="http://www.w3.org/2000/svg" xmlns:xlink="http://www.w3.org/1999/xlink" x="0px" y="0px"
	 width="1920px" height="2160px" viewBox="0 0 1920 2160" enable-background="new 0 0 1920 2160" xml:space="preserve">
<g>
	<g>
		<defs>
			<path id="SVGID_1_" d="M-134.231,1652.54"/>
		</defs>
		<use xlink:href="#SVGID_1_"  overflow="visible" fill="#00953E"/>
		<clipPath id="SVGID_2_">
			<use xlink:href="#SVGID_1_"  overflow="visible"/>
		</clipPath>
		<g clip-path="url(#SVGID_2_)">
			<defs>
				<path id="SVGID_3_" d="M-134.231,1652.54"/>
			</defs>
			<use xlink:href="#SVGID_3_"  overflow="visible" fill="#00953E"/>
			<clipPath id="SVGID_4_">
				<use xlink:href="#SVGID_3_"  overflow="visible"/>
			</clipPath>
		</g>
	</g>
	<rect x="1201.491" y="951.047" fill="#009DE2" width="214.076" height="33.773"/>
	<rect x="1433.79" y="951.047" fill="#009DE2" width="214.077" height="33.773"/>
	<rect x="736.895" y="1266.26" fill="#009DE2" width="214.077" height="33.772"/>
	<rect x="40" y="1581.473" fill="#009DE2" width="214.079" height="33.773"/>
	<rect x="272.297" y="1581.473" fill="#009DE2" width="214.079" height="33.773"/>
	<rect x="1201.491" y="1311.29" fill="#009DE2" width="214.076" height="33.773"/>
	<rect x="1666.088" y="1401.353" fill="#009DE2" width="214.078" height="33.771"/>
	<rect x="736.895" y="1311.29" fill="#009DE2" width="214.077" height="33.773"/>
	<rect x="40" y="1626.505" fill="#009DE2" width="214.079" height="33.773"/>
	<rect x="1666.088" y="1176.2" fill="#009DE2" width="214.078" height="33.771"/>
	<rect x="1433.79" y="1221.229" fill="#009DE2" width="214.077" height="33.772"/>
	<rect x="1201.491" y="1401.353" fill="#009DE2" width="214.076" height="33.771"/>
	<rect x="40" y="1131.168" fill="#009DE2" width="214.079" height="33.773"/>
	<rect x="504.596" y="2076.808" fill="#009DE2" width="214.078" height="33.773"/>
	<rect x="1666.088" y="1716.565" fill="#009DE2" width="214.078" height="33.773"/>
	<rect x="40" y="1176.2" fill="#009DE2" width="214.079" height="33.771"/>
	<rect x="504.596" y="2121.841" fill="#009DE2" width="214.078" height="33.771"/>
	<rect x="736.895" y="725.893" fill="#009DE2" width="214.077" height="33.773"/>
	<rect x="969.191" y="725.893" fill="#009DE2" width="214.08" height="33.773"/>
	<rect x="1666.088" y="680.863" fill="#009DE2" width="214.078" height="33.772"/>
	<rect x="1433.79" y="275.588" fill="#009DE2" width="214.077" height="33.774"/>
	<rect x="1433.79" y="320.621" fill="#009DE2" width="214.077" height="33.773"/>
	<rect x="1433.79" y="590.803" fill="#009DE2" width="214.077" height="33.773"/>
	<rect x="272.297" y="500.741" fill="#009DE2" width="214.079" height="33.773"/>
	<rect x="1666.088" y="230.558" fill="#009DE2" width="214.078" height="33.772"/>
</g>
</svg>
