<?xml version="1.0" encoding="utf-8"?>
<!-- Generator: Adobe Illustrator 15.0.0, SVG Export Plug-In . SVG Version: 6.00 Build 0)  -->
<!DOCTYPE svg PUBLIC "-//W3C//DTD SVG 1.1//EN" "http://www.w3.org/Graphics/SVG/1.1/DTD/svg11.dtd">
<svg version="1.1" id="Layer_1" xmlns="http://www.w3.org/2000/svg" xmlns:xlink="http://www.w3.org/1999/xlink" x="0px" y="0px"
	 width="1920px" height="2160px" viewBox="0 0 1920 2160" enable-background="new 0 0 1920 2160" xml:space="preserve">
<rect x="1433.79" y="1581.473" fill="#E2000B" width="214.077" height="33.773"/>
<rect x="1433.79" y="1356.32" fill="#E2000B" width="214.077" height="33.772"/>
<rect x="1433.79" y="1401.353" fill="#E2000B" width="214.077" height="33.771"/>
<rect x="40" y="1041.108" fill="#E2000B" width="214.079" height="33.772"/>
<rect x="272.297" y="1041.108" fill="#E2000B" width="214.079" height="33.772"/>
<rect x="736.895" y="2121.841" fill="#E2000B" width="214.077" height="33.771"/>
<rect x="1201.491" y="1086.138" fill="#E2000B" width="214.076" height="33.772"/>
<rect x="1433.79" y="1086.138" fill="#E2000B" width="214.077" height="33.772"/>
<rect x="40" y="1716.565" fill="#E2000B" width="214.079" height="33.773"/>
<rect x="969.191" y="1896.686" fill="#E2000B" width="214.08" height="33.773"/>
<rect x="969.191" y="1491.411" fill="#E2000B" width="214.08" height="33.773"/>
<rect x="969.191" y="1536.441" fill="#E2000B" width="214.08" height="33.772"/>
<rect x="736.895" y="1536.441" fill="#E2000B" width="214.077" height="33.772"/>
<rect x="1201.491" y="2076.808" fill="#E2000B" width="214.076" height="33.773"/>
<rect x="736.895" y="860.984" fill="#E2000B" width="214.077" height="33.775"/>
<rect x="40" y="410.681" fill="#E2000B" width="214.079" height="33.773"/>
<rect x="1433.79" y="500.741" fill="#E2000B" width="214.077" height="33.773"/>
<rect x="736.895" y="5.406" fill="#E2000B" width="214.077" height="33.773"/>
<rect x="736.895" y="410.681" fill="#E2000B" width="214.077" height="33.773"/>
<rect x="1666.088" y="95.467" fill="#E2000B" width="214.078" height="33.773"/>
<rect x="736.895" y="906.016" fill="#E2000B" width="214.077" height="33.773"/>
<rect x="504.596" y="906.016" fill="#E2000B" width="214.078" height="33.773"/>
</svg>
