<?xml version="1.0" encoding="utf-8"?>
<!-- Generator: Adobe Illustrator 15.0.0, SVG Export Plug-In . SVG Version: 6.00 Build 0)  -->
<!DOCTYPE svg PUBLIC "-//W3C//DTD SVG 1.1//EN" "http://www.w3.org/Graphics/SVG/1.1/DTD/svg11.dtd">
<svg version="1.1" id="Layer_1" xmlns="http://www.w3.org/2000/svg" xmlns:xlink="http://www.w3.org/1999/xlink" x="0px" y="0px"
	 width="1920px" height="2160px" viewBox="0 0 1920 2160" enable-background="new 0 0 1920 2160" xml:space="preserve">
<g>
	<rect x="969.191" y="1266.26" fill="#00953E" width="214.08" height="33.772"/>
	<rect x="1666.088" y="1581.473" fill="#00953E" width="214.078" height="33.773"/>
	<rect x="969.191" y="1311.29" fill="#00953E" width="214.08" height="33.773"/>
	<rect x="1666.088" y="1311.29" fill="#00953E" width="214.078" height="33.773"/>
	<rect x="1666.088" y="1266.26" fill="#00953E" width="214.078" height="33.772"/>
	<rect x="504.596" y="1941.718" fill="#00953E" width="214.078" height="33.772"/>
	<rect x="272.297" y="1941.718" fill="#00953E" width="214.079" height="33.772"/>
	<rect x="504.596" y="1986.747" fill="#00953E" width="214.078" height="33.773"/>
	<rect x="272.297" y="1131.168" fill="#00953E" width="214.079" height="33.773"/>
	<rect x="969.191" y="1401.353" fill="#00953E" width="214.08" height="33.771"/>
	<rect x="40" y="1761.596" fill="#00953E" width="214.079" height="33.771"/>
	<rect x="1201.491" y="1986.747" fill="#00953E" width="214.076" height="33.773"/>
	<rect x="1201.491" y="2031.779" fill="#00953E" width="214.076" height="33.772"/>
	<rect x="736.895" y="680.863" fill="#00953E" width="214.077" height="33.772"/>
	<rect x="1201.491" y="725.893" fill="#00953E" width="214.076" height="33.773"/>
	<rect x="1201.491" y="770.926" fill="#00953E" width="214.076" height="33.771"/>
	<rect x="272.297" y="680.863" fill="#00953E" width="214.079" height="33.772"/>
	<rect x="1666.088" y="545.772" fill="#00953E" width="214.078" height="33.773"/>
	<rect x="1433.79" y="365.65" fill="#00953E" width="214.077" height="33.772"/>
	<rect x="1433.79" y="410.681" fill="#00953E" width="214.077" height="33.773"/>
	<rect x="272.297" y="545.772" fill="#00953E" width="214.079" height="33.773"/>
	<rect x="504.596" y="545.772" fill="#00953E" width="214.078" height="33.773"/>
	<rect x="1201.491" y="275.588" fill="#00953E" width="214.076" height="33.774"/>
	<rect x="736.895" y="365.65" fill="#00953E" width="214.077" height="33.772"/>
	<rect x="1666.088" y="185.527" fill="#00953E" width="214.078" height="33.773"/>
</g>
</svg>
