<?xml version="1.0" encoding="utf-8"?>
<!-- Generator: Adobe Illustrator 15.0.0, SVG Export Plug-In . SVG Version: 6.00 Build 0)  -->
<!DOCTYPE svg PUBLIC "-//W3C//DTD SVG 1.1//EN" "http://www.w3.org/Graphics/SVG/1.1/DTD/svg11.dtd">
<svg version="1.1" id="Layer_1" xmlns="http://www.w3.org/2000/svg" xmlns:xlink="http://www.w3.org/1999/xlink" x="0px" y="0px"
	 width="1920px" height="2160px" viewBox="0 0 1920 2160" enable-background="new 0 0 1920 2160" xml:space="preserve">
<rect x="40" y="951.047" fill="#FFEC00" width="214.079" height="33.773"/>
<rect x="40" y="1536.441" fill="#FFEC00" width="214.079" height="33.772"/>
<rect x="736.895" y="1221.229" fill="#FFEC00" width="214.077" height="33.772"/>
<rect x="736.895" y="2031.779" fill="#FFEC00" width="214.077" height="33.772"/>
<rect x="1666.088" y="1446.381" fill="#FFEC00" width="214.078" height="33.774"/>
<rect x="1666.088" y="1491.411" fill="#FFEC00" width="214.078" height="33.773"/>
<rect x="1201.491" y="1041.108" fill="#FFEC00" width="214.076" height="33.772"/>
<rect x="1433.79" y="1176.2" fill="#FFEC00" width="214.077" height="33.771"/>
<rect x="1433.79" y="1131.168" fill="#FFEC00" width="214.077" height="33.773"/>
<rect x="1201.491" y="1446.381" fill="#FFEC00" width="214.076" height="33.774"/>
<rect x="1433.79" y="1716.565" fill="#FFEC00" width="214.077" height="33.773"/>
<rect x="1433.79" y="1761.596" fill="#FFEC00" width="214.077" height="33.771"/>
<rect x="1433.79" y="2076.808" fill="#FFEC00" width="214.077" height="33.773"/>
<rect x="40" y="1221.229" fill="#FFEC00" width="214.079" height="33.772"/>
<rect x="272.297" y="2121.841" fill="#FFEC00" width="214.079" height="33.771"/>
<rect x="969.191" y="770.926" fill="#FFEC00" width="214.08" height="33.771"/>
<rect x="736.895" y="815.955" fill="#FFEC00" width="214.077" height="33.772"/>
<rect x="1666.088" y="725.893" fill="#FFEC00" width="214.078" height="33.773"/>
<rect x="40" y="455.711" fill="#FFEC00" width="214.079" height="33.774"/>
<rect x="1666.088" y="320.621" fill="#FFEC00" width="214.078" height="33.773"/>
<rect x="272.297" y="455.711" fill="#FFEC00" width="214.079" height="33.774"/>
<rect x="1433.79" y="635.832" fill="#FFEC00" width="214.077" height="33.773"/>
<rect x="504.596" y="5.406" fill="#FFEC00" width="214.078" height="33.773"/>
<rect x="504.596" y="50.438" fill="#FFEC00" width="214.078" height="33.773"/>
<rect x="1666.088" y="5.406" fill="#FFEC00" width="214.078" height="33.773"/>
<rect x="1666.088" y="50.438" fill="#FFEC00" width="214.078" height="33.773"/>
<rect x="1433.79" y="50.438" fill="#FFEC00" width="214.077" height="33.773"/>
<rect x="1666.088" y="770.926" fill="#FFEC00" width="214.078" height="33.771"/>
</svg>
