<?xml version="1.0" encoding="utf-8"?>
<!-- Generator: Adobe Illustrator 16.0.5, SVG Export Plug-In . SVG Version: 6.00 Build 0)  -->
<!DOCTYPE svg PUBLIC "-//W3C//DTD SVG 1.1//EN" "http://www.w3.org/Graphics/SVG/1.1/DTD/svg11.dtd">
<svg version="1.1" id="CIID_x5F_GYOC_x5F_logo_x5F_full_x5F_color_x5F_pozytyw_x5F_RGB"
	 xmlns="http://www.w3.org/2000/svg" xmlns:xlink="http://www.w3.org/1999/xlink" x="0px" y="0px" width="800px" height="286.82px"
	 viewBox="0 0 800 286.82" enable-background="new 0 0 800 286.82" xml:space="preserve">
<rect id="pole_x5F_ochronne" fill="#FFFFFF" width="800" height="286.82"/>
<g id="CIID_x5F_GYOC_x5F_logo_x5F_full_x5F_color_x5F_pozytyw_x5F_RGB_1_">
	<g id="CIID_x5F_GYOC_x5F_tagline">
		<path d="M361.932,235.669l-0.478-2.704c-1.112,1.847-3.592,3.147-6.136,3.147c-2.258,0-4.452-0.73-6.073-2.32
			c-2.29-2.226-2.927-5.342-2.927-9.38c0-3.592,0.478-6.899,2.927-9.283c1.621-1.592,3.815-2.418,6.073-2.418
			c2.544,0,4.896,0.891,6.454,2.544c1.081,1.144,1.844,2.575,1.939,4.389h-2.957c-0.096-1.052-0.444-1.782-1.018-2.48
			c-1.018-1.208-2.576-1.782-4.419-1.782c-1.527,0-3.021,0.604-4.104,1.718c-1.844,1.906-1.97,4.961-1.97,7.313
			c0,2.26,0.158,5.503,2.034,7.409c1.081,1.112,2.512,1.622,4.039,1.622c1.59,0,3.083-0.54,4.101-1.557
			c1.495-1.463,1.939-3.657,1.939-5.724h-6.04v-2.639h8.584v12.145H361.932z"/>
		<path d="M376.312,222.093c-1.271,0-2.32,0.572-3.053,1.272c-1.303,1.24-1.463,3.463-1.463,5.149v7.154h-2.671v-16.089h2.386
			l0.223,2.83c0.826-1.97,2.766-2.926,4.801-2.926c0.414,0,0.859,0.032,1.271,0.096v2.639
			C377.329,222.125,376.788,222.093,376.312,222.093z"/>
		<path d="M392.303,234.206c-1.176,1.144-2.83,1.876-4.864,1.876c-2.035,0-3.688-0.732-4.866-1.876
			c-1.748-1.715-2.288-4.038-2.288-6.582c0-2.542,0.54-4.865,2.288-6.58c1.178-1.146,2.831-1.876,4.866-1.876
			c2.034,0,3.688,0.73,4.864,1.876c1.749,1.715,2.29,4.038,2.29,6.58C394.593,230.168,394.052,232.491,392.303,234.206z
			 M390.332,222.633c-0.668-0.668-1.623-1.146-2.894-1.146c-1.272,0-2.226,0.478-2.895,1.146c-1.145,1.176-1.494,3.116-1.494,4.991
			c0,1.878,0.35,3.817,1.494,4.993c0.669,0.666,1.622,1.144,2.895,1.144c1.271,0,2.226-0.478,2.894-1.144
			c1.144-1.176,1.494-3.115,1.494-4.993C391.826,225.75,391.476,223.809,390.332,222.633z"/>
		<path d="M414.985,235.669h-2.607l-4.197-12.304l-4.292,12.304h-2.576l-4.134-16.089h2.671l3.084,12.145l4.103-11.954h2.32
			l4.039,11.954l3.115-12.145h2.64L414.985,235.669z"/>
		<path d="M438.867,226.512v9.157h-2.861v-9.157l-7.567-13.388h3.18l5.914,10.717l5.882-10.717h3.021L438.867,226.512z"/>
		<path d="M458.038,234.206c-1.176,1.144-2.829,1.876-4.864,1.876s-3.688-0.732-4.865-1.876c-1.748-1.715-2.289-4.038-2.289-6.582
			c0-2.542,0.541-4.865,2.289-6.58c1.177-1.146,2.83-1.876,4.865-1.876s3.688,0.73,4.864,1.876c1.749,1.715,2.29,4.038,2.29,6.58
			C460.328,230.168,459.787,232.491,458.038,234.206z M456.067,222.633c-0.668-0.668-1.622-1.146-2.894-1.146
			c-1.272,0-2.226,0.478-2.894,1.146c-1.146,1.176-1.494,3.116-1.494,4.991c0,1.878,0.349,3.817,1.494,4.993
			c0.668,0.666,1.621,1.144,2.894,1.144c1.271,0,2.226-0.478,2.894-1.144c1.145-1.176,1.494-3.115,1.494-4.993
			C457.562,225.75,457.212,223.809,456.067,222.633z"/>
		<path d="M475.191,235.669l-0.223-2.448c-0.827,1.844-2.895,2.83-4.77,2.83c-3.657,0-5.502-2.193-5.502-5.914v-10.556h2.703v10.175
			c0,2.416,0.891,3.847,3.436,3.847c1.08,0,1.971-0.478,2.67-1.208c1.018-1.049,1.335-2.797,1.335-4.451v-8.363h2.703v16.089
			H475.191z"/>
		<path d="M490.242,222.093c-1.272,0-2.321,0.572-3.053,1.272c-1.304,1.24-1.463,3.463-1.463,5.149v7.154h-2.671v-16.089h2.385
			l0.223,2.83c0.827-1.97,2.767-2.926,4.802-2.926c0.413,0,0.858,0.032,1.271,0.096v2.639
			C491.259,222.125,490.719,222.093,490.242,222.093z"/>
		<path d="M517.111,233.696c-1.622,1.592-3.815,2.417-6.072,2.417c-2.258,0-4.452-0.825-6.074-2.417
			c-2.448-2.384-2.894-5.689-2.894-9.283c0-3.592,0.445-6.899,2.894-9.283c1.622-1.592,3.816-2.418,6.074-2.418
			c2.257,0,4.45,0.827,6.072,2.418c2.448,2.384,2.894,5.691,2.894,9.283C520.005,228.007,519.56,231.312,517.111,233.696z
			 M515.14,217.1c-1.081-1.114-2.575-1.686-4.101-1.686c-1.527,0-3.021,0.572-4.103,1.686c-1.844,1.906-1.939,4.961-1.939,7.313
			c0,2.354,0.096,5.406,1.939,7.312c1.081,1.114,2.575,1.686,4.103,1.686c1.525,0,3.02-0.572,4.101-1.686
			c1.844-1.906,1.94-4.958,1.94-7.312C517.08,222.061,516.983,219.006,515.14,217.1z"/>
		<path d="M540.952,235.669h-2.607l-4.197-12.304l-4.293,12.304h-2.575l-4.135-16.089h2.671l3.085,12.145l4.102-11.954h2.322
			l4.038,11.954l3.115-12.145h2.64L540.952,235.669z"/>
		<path d="M559.396,235.669v-10.207c0-2.417-0.986-3.847-3.53-3.847c-1.559,0-2.799,1.018-3.498,2.48
			c-0.541,1.176-0.572,2.862-0.572,4.102v7.471h-2.703v-16.089h2.354l0.223,2.417c0.827-1.844,3.053-2.83,4.864-2.83
			c3.657,0,5.565,2.193,5.565,5.914v10.588H559.396z"/>
		<path d="M589.543,233.696c-1.366,1.369-3.593,2.417-6.041,2.417c-2.258,0-4.483-0.825-6.105-2.417
			c-2.448-2.384-2.829-5.689-2.829-9.283c0-3.592,0.381-6.899,2.829-9.283c1.622-1.592,3.848-2.418,6.105-2.418
			c2.448,0,4.643,0.953,6.01,2.322c1.304,1.337,2.131,3.052,2.225,5.151h-2.925c-0.032-1.24-0.508-2.322-1.24-3.148
			c-0.89-0.985-2.353-1.654-4.069-1.654c-1.526,0-3.021,0.604-4.103,1.718c-1.844,1.906-1.907,4.961-1.907,7.313
			c0,2.354,0.063,5.406,1.907,7.312c1.081,1.114,2.576,1.718,4.103,1.718c1.717,0,3.21-0.73,4.102-1.718
			c0.731-0.827,1.208-2.002,1.24-3.243h2.925C591.673,230.582,590.847,232.362,589.543,233.696z"/>
		<path d="M599.097,235.86c-2.354,0-3.371-1.398-3.371-3.941v-19.208h2.702v19.046c0,1.082,0.351,1.654,1.463,1.654
			c0.891,0,1.113-0.032,1.113-0.032v2.29C601.004,235.669,600.399,235.86,599.097,235.86z"/>
		<path d="M615.662,234.206c-1.176,1.144-2.829,1.876-4.865,1.876c-2.035,0-3.688-0.732-4.864-1.876
			c-1.749-1.715-2.289-4.038-2.289-6.582c0-2.542,0.54-4.865,2.289-6.58c1.177-1.146,2.829-1.876,4.864-1.876
			c2.036,0,3.689,0.73,4.865,1.876c1.749,1.715,2.29,4.038,2.29,6.58C617.952,230.168,617.411,232.491,615.662,234.206z
			 M613.69,222.633c-0.667-0.668-1.621-1.146-2.894-1.146c-1.271,0-2.225,0.478-2.893,1.146c-1.145,1.176-1.494,3.116-1.494,4.991
			c0,1.878,0.35,3.817,1.494,4.993c0.668,0.666,1.621,1.144,2.893,1.144c1.272,0,2.227-0.478,2.894-1.144
			c1.146-1.176,1.495-3.115,1.495-4.993C615.186,225.75,614.837,223.809,613.69,222.633z"/>
		<path d="M632.814,235.669l-0.222-2.448c-0.827,1.844-2.894,2.83-4.771,2.83c-3.656,0-5.5-2.193-5.5-5.914v-10.556h2.703v10.175
			c0,2.416,0.89,3.847,3.435,3.847c1.081,0,1.971-0.478,2.67-1.208c1.018-1.049,1.336-2.797,1.336-4.451v-8.363h2.703v16.089
			H632.814z"/>
		<path d="M651.574,235.669l-0.19-2.097c-0.924,1.619-2.989,2.51-4.803,2.51c-1.972,0-3.497-0.668-4.548-1.748
			c-1.524-1.56-2.319-4.005-2.319-6.679c0-2.766,0.825-5.31,2.448-6.867c1.05-0.985,2.544-1.622,4.419-1.622
			c1.749,0,3.816,0.827,4.675,2.29v-8.746h2.703v22.958H651.574z M649.634,222.507c-0.636-0.574-1.43-1.05-2.607-1.05
			c-3.593,0-4.547,3.211-4.547,6.167c0,2.958,0.954,6.169,4.547,6.169c1.178,0,1.972-0.476,2.607-1.047
			c1.336-1.178,1.78-3.119,1.78-5.122C651.414,225.621,650.97,223.683,649.634,222.507z"/>
	</g>
	<g id="CIID_x5F_GYOC_x5F_logotyp">
		<path fill="#009BF0" d="M50.704,136.586v-11.883h67.605v11.883H50.704z"/>
		<path d="M210.511,179.34l-2.145-12.157c-5.007,8.296-16.163,14.16-27.605,14.16c-10.156,0-20.025-3.292-27.321-10.441
			c-10.297-10.012-13.159-24.031-13.159-42.196c0-16.162,2.146-31.038,13.159-41.766c7.296-7.152,17.165-10.871,27.321-10.871
			c11.442,0,22.027,4.005,29.035,11.442c4.863,5.149,8.296,11.587,8.726,19.738h-13.302c-0.429-4.72-2.002-8.008-4.577-11.155
			c-4.578-5.434-11.586-8.011-19.882-8.011c-6.866,0-13.588,2.719-18.452,7.726c-8.296,8.581-8.869,22.311-8.869,32.896
			c0,10.156,0.716,24.745,9.155,33.328c4.863,5.004,11.3,7.294,18.166,7.294c7.152,0,13.874-2.433,18.451-7.01
			c6.723-6.578,8.726-16.449,8.726-25.747H180.76v-11.872h38.618v54.639H210.511z"/>
		<path fill="#E60000" d="M241.104,136.586v-11.883h67.605v11.883H241.104z"/>
		<path d="M360.686,138.148v41.192h-12.873v-41.192l-34.042-60.22h14.303l26.605,48.204l26.462-48.204h13.587L360.686,138.148z"/>
		<path fill="#009614" d="M399.789,136.586v-11.883h67.604v11.883H399.789z"/>
		<path d="M554.823,170.472c-7.294,7.152-17.163,10.871-27.318,10.871c-10.156,0-20.025-3.719-27.32-10.871
			c-11.013-10.728-13.017-25.604-13.017-41.766s2.004-31.038,13.017-41.766c7.295-7.152,17.164-10.871,27.32-10.871
			c10.155,0,20.024,3.718,27.318,10.871c11.015,10.728,13.017,25.604,13.017,41.766S565.838,159.744,554.823,170.472z
			 M545.956,95.81c-4.862-5.007-11.586-7.583-18.451-7.583c-6.866,0-13.589,2.577-18.452,7.583
			c-8.295,8.581-8.725,22.311-8.725,32.896c0,10.586,0.43,24.315,8.725,32.898c4.863,5.004,11.586,7.579,18.452,7.579
			c6.865,0,13.589-2.575,18.451-7.579c8.297-8.583,8.725-22.312,8.725-32.898C554.681,118.121,554.253,104.391,545.956,95.81z"/>
		<path fill="#FFEB00" d="M586.354,136.586v-11.883h67.605v11.883H586.354z"/>
		<path d="M739.281,170.472c-6.15,6.15-16.162,10.871-27.177,10.871c-10.155,0-20.167-3.719-27.462-10.871
			c-11.014-10.728-12.729-25.604-12.729-41.766s1.716-31.038,12.729-41.766c7.295-7.152,17.307-10.871,27.462-10.871
			c11.015,0,20.884,4.291,27.034,10.441c5.864,6.008,9.585,13.732,10.012,23.172h-13.16c-0.143-5.579-2.287-10.441-5.576-14.16
			c-4.006-4.435-10.584-7.439-18.31-7.439c-6.865,0-13.588,2.719-18.451,7.726c-8.296,8.581-8.581,22.311-8.581,32.896
			c0,10.586,0.285,24.315,8.581,32.898c4.863,5.004,11.586,7.724,18.451,7.724c7.726,0,14.446-3.289,18.452-7.724
			c3.288-3.718,5.434-9.012,5.578-14.591h13.158C748.865,156.455,745.145,164.464,739.281,170.472z"/>
	</g>
</g>
</svg>
