<svg id="GYOC_logo_full_color_pozytyw_CMYK" xmlns="http://www.w3.org/2000/svg" viewBox="0 0 340.16 121.96"><defs><style>.cls-1{fill:#fff;}.cls-2{fill:#009ee3;}.cls-3{fill:#181716;}.cls-4{fill:#e3000b;}.cls-5{fill:#00963e;}.cls-6{fill:#ffed00;}</style></defs><title>Artboard 1</title><rect id="pole_ochronne" class="cls-1" width="340.16" height="121.96"/><g id="GYOC_logotyp"><path class="cls-2" d="M21.56,58.08V53H50.3v5.05Z"/><path class="cls-3" d="M89.51,76.25l-.91-5.17c-2.13,3.53-6.87,6-11.74,6a16.36,16.36,0,0,1-11.62-4.44c-4.38-4.26-5.6-10.22-5.6-17.94,0-6.87.91-13.2,5.6-17.76a16.52,16.52,0,0,1,11.62-4.62A16.82,16.82,0,0,1,89.2,37.21a12.93,12.93,0,0,1,3.71,8.39H87.26a8.18,8.18,0,0,0-1.95-4.74c-1.95-2.31-4.93-3.41-8.45-3.41A11,11,0,0,0,69,40.74c-3.53,3.65-3.77,9.49-3.77,14,0,4.32.3,10.52,3.89,14.17A10.51,10.51,0,0,0,76.86,72a11,11,0,0,0,7.85-3c2.86-2.8,3.71-7,3.71-10.95H76.86V53H93.28V76.25Z"/><path class="cls-4" d="M102.52,58.08V53h28.75v5.05Z"/><path class="cls-3" d="M153.36,58.74V76.25h-5.47V58.74L133.41,33.13h6.08l11.31,20.5,11.25-20.5h5.78Z"/><path class="cls-5" d="M170,58.08V53h28.75v5.05Z"/><path class="cls-3" d="M235.91,72.48a16.91,16.91,0,0,1-23.23,0c-4.68-4.56-5.53-10.89-5.53-17.76S208,41.53,212.68,37a16.91,16.91,0,0,1,23.23,0c4.68,4.56,5.53,10.89,5.53,17.76S240.59,67.92,235.91,72.48Zm-3.77-31.75a11.16,11.16,0,0,0-15.69,0c-3.53,3.65-3.71,9.49-3.71,14s.18,10.34,3.71,14a11.16,11.16,0,0,0,15.69,0c3.53-3.65,3.71-9.49,3.71-14S235.67,44.39,232.14,40.74Z"/><path class="cls-6" d="M249.32,58.08V53h28.75v5.05Z"/><path class="cls-3" d="M314.34,72.48a16.91,16.91,0,0,1-23.23,0c-4.68-4.56-5.41-10.89-5.41-17.76s.73-13.2,5.41-17.76a16.67,16.67,0,0,1,11.68-4.62,16.44,16.44,0,0,1,11.5,4.44,14.71,14.71,0,0,1,4.26,9.85h-5.6a9.37,9.37,0,0,0-2.37-6,10.45,10.45,0,0,0-7.79-3.16,11,11,0,0,0-7.85,3.29c-3.53,3.65-3.65,9.49-3.65,14s.12,10.34,3.65,14A11,11,0,0,0,302.79,72a10.66,10.66,0,0,0,7.85-3.28,9.88,9.88,0,0,0,2.37-6.2h5.59A15,15,0,0,1,314.34,72.48Z"/></g></svg>